<?xml version="1.0" encoding="iso-8859-1"?>
<!-- Generator: Adobe Illustrator 19.0.0, SVG Export Plug-In . SVG Version: 6.00 Build 0)  -->
<svg version="1.1" id="Layer_1" xmlns="http://www.w3.org/2000/svg" xmlns:xlink="http://www.w3.org/1999/xlink" x="0px" y="0px"
	 viewBox="0 0 509.287 509.287" style="enable-background:new 0 0 509.287 509.287;" xml:space="preserve">
<circle style="fill:#F0582F;" cx="254.644" cy="254.644" r="254.644"/>
<rect x="76.291" y="87.142" style="fill:#F1F3F7;" width="357.044" height="334.665"/>
<rect x="95.958" y="109.86" style="fill:#6EB1E1;" width="313.981" height="89.854"/>
<path style="fill:#414753;" d="M308.895,422.146V279.735c0-29.838-24.413-54.252-54.252-54.252s-54.252,24.413-54.252,54.252
	v142.072h108.503V422.146z"/>
<g>
	<path style="fill:#6EB1E1;" d="M294.993,278.04c-0.339-21.701-18.31-39.332-40.35-39.332s-40.011,17.632-40.35,39.332H294.993z"/>
	<rect x="213.955" y="290.585" style="fill:#6EB1E1;" width="33.907" height="131.56"/>
	<rect x="261.086" y="290.585" style="fill:#6EB1E1;" width="33.907" height="131.56"/>
</g>
<rect x="116.641" y="264.138" style="fill:#414753;" width="50.522" height="120.032"/>
<g>
	<rect x="127.83" y="273.293" style="fill:#6EB1E1;" width="27.465" height="26.448"/>
	<rect x="127.83" y="310.591" style="fill:#6EB1E1;" width="27.465" height="61.711"/>
</g>
<rect x="342.464" y="264.138" style="fill:#414753;" width="50.522" height="120.032"/>
<g>
	<rect x="353.653" y="273.293" style="fill:#6EB1E1;" width="27.465" height="26.448"/>
	<rect x="353.653" y="310.591" style="fill:#6EB1E1;" width="27.465" height="61.711"/>
</g>
<g>
	<rect x="76.291" y="398.072" style="fill:#DEDEDF;" width="124.101" height="23.735"/>
	<rect x="308.895" y="398.072" style="fill:#DEDEDF;" width="124.101" height="23.735"/>
</g>
<g>
	<path style="fill:#FFFFFF;" d="M301.775,120.371c-3.052,0-5.764,2.713-5.764,5.764v36.62l-23.735-39.672
		c-1.356-2.374-4.069-3.391-6.442-2.713c-2.374,0.678-4.069,3.052-4.069,5.425v57.303c0,3.052,2.713,5.764,5.764,5.764
		c3.052,0,5.764-2.713,5.764-5.764v-36.281l23.735,39.672c1.017,1.695,3.052,2.713,5.086,2.713c0.678,0,1.017,0,1.695-0.339
		c2.374-0.678,4.069-3.052,4.069-5.425v-57.303C307.539,122.744,305.166,120.371,301.775,120.371z"/>
	<path style="fill:#FFFFFF;" d="M225.144,124.44c-0.678-2.374-2.713-3.73-5.086-3.73c-2.374,0-4.408,1.356-5.425,3.73
		l-21.701,56.625c-1.017,3.052,0.339,6.442,3.391,7.46c0.678,0.339,5.425,0.678,7.46-3.391l5.086-13.224h22.379l5.086,13.224
		c1.017,3.052,4.408,4.408,7.46,3.391c3.052-1.017,4.408-4.408,3.391-7.46L225.144,124.44z M212.938,160.381l6.781-17.971
		l6.781,17.971H212.938z"/>
	<path style="fill:#FFFFFF;" d="M182.421,140.376c0-11.189-9.155-20.005-20.005-20.005h-14.919c-3.052,0-5.764,2.713-5.764,5.764
		v28.482l0,0l0,0v28.482c0,3.052,2.713,5.764,5.764,5.764h14.919c11.189,0,20.005-9.155,20.005-20.005
		c0-5.764-2.374-10.85-6.103-14.241C180.048,150.887,182.421,145.801,182.421,140.376z M152.922,131.56h9.155
		c4.747,0,8.477,3.73,8.477,8.477s-3.73,8.477-8.477,8.477h-9.155V131.56z M162.416,177.674h-9.155v-17.293h9.155
		c4.747,0,8.477,3.73,8.477,8.477C170.893,173.605,166.824,177.674,162.416,177.674z"/>
	<path style="fill:#FFFFFF;" d="M338.056,154.956l24.413-24.413c2.374-2.374,2.374-5.764,0-8.138c-2.373-2.374-5.764-2.374-8.138,0
		l-18.649,18.649v-14.919c0-3.052-2.713-5.764-5.764-5.764s-5.764,2.713-5.764,5.764v57.303c0,3.052,2.713,5.764,5.764,5.764
		c3.052,0,5.764-2.713,5.764-5.764v-14.58l18.649,18.649c1.017,1.017,2.713,1.695,4.069,1.695c1.356,0,3.052-0.678,4.069-1.695
		c2.374-2.374,2.374-5.764,0-8.138L338.056,154.956z"/>
</g>
<g>
</g>
<g>
</g>
<g>
</g>
<g>
</g>
<g>
</g>
<g>
</g>
<g>
</g>
<g>
</g>
<g>
</g>
<g>
</g>
<g>
</g>
<g>
</g>
<g>
</g>
<g>
</g>
<g>
</g>
</svg>
